<svg width="427" height="666" viewBox="0 0 427 666" fill="none" xmlns="http://www.w3.org/2000/svg">
<path d="M-90.2725 377.692C-97.2551 372.61 -98.016 362.479 -91.8708 356.411L128.638 138.665C133.517 133.846 141.169 133.272 146.713 137.307L401.077 322.443C406.581 326.449 408.405 333.833 405.401 339.941L310.057 533.785C308.13 537.702 304.487 540.496 300.205 541.341L175.903 565.872C172.077 566.627 168.108 565.751 164.954 563.456L-90.2725 377.692Z" fill="#157AFE" fill-opacity="0.19"/>
<path d="M-284.541 335.608C-289.199 330.182 -289.02 322.117 -284.124 316.904L-3.31052 17.8921C2.38894 11.8232 12.0935 12.0396 17.5168 18.3564L284.725 329.586C289.384 335.012 289.204 343.077 284.308 348.29L3.49517 647.302C-2.20429 653.371 -11.9088 653.155 -17.3322 646.838L-284.541 335.608Z" fill="#157AFE" fill-opacity="0.19"/>
</svg>
