<svg width="30" height="31" viewBox="0 0 30 31" fill="none" xmlns="http://www.w3.org/2000/svg">
<g clip-path="url(#clip0_19_16)">
<path d="M15.3062 12.5232V18.4509H23.5437C23.1819 20.3572 22.0964 21.9714 20.4685 23.0567L25.436 26.9111C28.3303 24.2396 30 20.3156 30 15.6542C30 14.5689 29.9026 13.5252 29.7217 12.5234L15.3062 12.5232Z" fill="#4285F4"/>
<path d="M6.72798 18.2195L5.60761 19.0771L1.64185 22.1662C4.16041 27.1615 9.32239 30.6124 15.3057 30.6124C19.4383 30.6124 22.903 29.2488 25.4355 26.9111L20.468 23.0567C19.1043 23.9751 17.365 24.5317 15.3057 24.5317C11.3261 24.5317 7.94491 21.8462 6.73424 18.2283L6.72798 18.2195Z" fill="#34A853"/>
<path d="M1.64206 8.44624C0.598515 10.5055 0.000244141 12.8293 0.000244141 15.3061C0.000244141 17.7829 0.598515 20.1067 1.64206 22.166C1.64206 22.1798 6.73494 18.2142 6.73494 18.2142C6.42882 17.2958 6.24788 16.3219 6.24788 15.306C6.24788 14.29 6.42882 13.3161 6.73494 12.3977L1.64206 8.44624Z" fill="#FBBC05"/>
<path d="M15.306 6.09465C17.5602 6.09465 19.5639 6.87385 21.1641 8.37667L25.5472 3.99358C22.8895 1.5168 19.4387 0 15.306 0C9.3227 0 4.16041 3.43693 1.64185 8.44625L6.73457 12.398C7.94508 8.78017 11.3264 6.09465 15.306 6.09465Z" fill="#EA4335"/>
</g>
<defs>
<clipPath id="clip0_19_16">
<rect width="30" height="30.6122" fill="white"/>
</clipPath>
</defs>
</svg>
