<?xml version="1.0" encoding="UTF-8"?>
<svg xmlns="http://www.w3.org/2000/svg" id="Layer_1" data-name="Layer 1" viewBox="0 0 24 24">
  <path d="m8,11c0,.828-.672,1.5-1.5,1.5s-1.5-.672-1.5-1.5.672-1.5,1.5-1.5,1.5.672,1.5,1.5Zm-1.5-6.5c-.828,0-1.5.672-1.5,1.5s.672,1.5,1.5,1.5,1.5-.672,1.5-1.5-.672-1.5-1.5-1.5Zm0,10c-.828,0-1.5.672-1.5,1.5s.672,1.5,1.5,1.5,1.5-.672,1.5-1.5-.672-1.5-1.5-1.5ZM21,0H3C1.346,0,0,1.346,0,3v20h10.321c-.712-.788-1.172-1.538-1.421-2H2V3c0-.551.449-1,1-1h18c.551,0,1,.449,1,1v11.531c.831.572,1.495,1.228,2,1.842V3c0-1.654-1.346-3-3-3Zm-2,5h-9v2h9v-2Zm-9,7h9v-2h-9v2Zm13.387,7.039l.24.461-.24.461c-.492.947-2.407,4.039-6.387,4.039s-5.896-3.092-6.388-4.039l-.239-.461.239-.46c.491-.948,2.403-4.04,6.388-4.04s5.896,3.092,6.387,4.039Zm-2.041.461c-.633-.995-1.981-2.5-4.347-2.5s-3.715,1.505-4.347,2.5c.632.995,1.98,2.5,4.347,2.5s3.714-1.505,4.347-2.5Zm-4.347-1.5c-.828,0-1.5.672-1.5,1.5s.672,1.5,1.5,1.5,1.5-.672,1.5-1.5-.672-1.5-1.5-1.5Z"/>
</svg>
