<svg width="317" height="747" viewBox="0 0 317 747" fill="none" xmlns="http://www.w3.org/2000/svg">
<path d="M48.4592 335.608C43.8007 330.182 43.9805 322.117 48.8762 316.904L329.689 17.892C335.389 11.8232 345.093 12.0396 350.517 18.3564L617.725 329.586C622.384 335.012 622.204 343.077 617.308 348.29L336.495 647.302C330.796 653.371 321.091 653.155 315.668 646.838L48.4592 335.608Z" fill="#157AFE" fill-opacity="0.19"/>
<path d="M29.7276 537.692C22.745 532.61 21.9841 522.479 28.1293 516.411L248.638 298.665C253.517 293.846 261.169 293.272 266.713 297.307L521.077 482.443C526.581 486.449 528.406 493.833 525.401 499.941L430.057 693.785C428.13 697.702 424.487 700.496 420.205 701.341L295.904 725.871C292.077 726.627 288.108 725.751 284.954 723.456L29.7276 537.692Z" fill="#157AFE" fill-opacity="0.19"/>
</svg>
